<?xml version="1.0" encoding="UTF-8" standalone="no"?>
<!-- Generator: Adobe Illustrator 17.1.0, SVG Export Plug-In . SVG Version: 6.00 Build 0)  -->

<svg
   xmlns:dc="http://purl.org/dc/elements/1.1/"
   xmlns:cc="http://creativecommons.org/ns#"
   xmlns:rdf="http://www.w3.org/1999/02/22-rdf-syntax-ns#"
   xmlns:svg="http://www.w3.org/2000/svg"
   xmlns="http://www.w3.org/2000/svg"
   xmlns:sodipodi="http://sodipodi.sourceforge.net/DTD/sodipodi-0.dtd"
   xmlns:inkscape="http://www.inkscape.org/namespaces/inkscape"
   version="1.1"
   id="Capa_1"
   x="0px"
   y="0px"
   viewBox="0 0 470 470"
   style="enable-background:new 0 0 470 470;"
   xml:space="preserve"
   sodipodi:docname="rupee-tails.svg"
   inkscape:version="0.92.4 (5da689c313, 2019-01-14)"><metadata
   id="metadata55"><rdf:RDF><cc:Work
       rdf:about=""><dc:format>image/svg+xml</dc:format><dc:type
         rdf:resource="http://purl.org/dc/dcmitype/StillImage" /></cc:Work></rdf:RDF></metadata><defs
   id="defs53" /><sodipodi:namedview
   pagecolor="#ffffff"
   bordercolor="#666666"
   borderopacity="1"
   objecttolerance="10"
   gridtolerance="10"
   guidetolerance="10"
   inkscape:pageopacity="0"
   inkscape:pageshadow="2"
   inkscape:window-width="1920"
   inkscape:window-height="1018"
   id="namedview51"
   showgrid="false"
   inkscape:zoom="0.50212766"
   inkscape:cx="235"
   inkscape:cy="235"
   inkscape:window-x="-8"
   inkscape:window-y="-8"
   inkscape:window-maximized="1"
   inkscape:current-layer="g18" />
<g
   id="g18">
	<path
   d="m 416.865,340 c 0.135,-0.234 0.255,-0.472 0.362,-0.714 C 434.89,308.542 445,272.929 445,235 445,197.071 434.89,161.458 417.227,130.714 417.12,130.473 417,130.234 416.865,130 c -0.151,-0.261 -0.319,-0.506 -0.495,-0.742 -7.066,-12.073 -15.303,-23.378 -24.553,-33.765 -0.223,-0.351 -0.47,-0.691 -0.757,-1.01 -0.271,-0.301 -0.565,-0.567 -0.871,-0.813 -9.35,-10.258 -19.707,-19.581 -30.903,-27.829 -0.264,-0.26 -0.543,-0.51 -0.853,-0.734 -0.301,-0.219 -0.615,-0.402 -0.934,-0.57 C 346.03,56.272 333.7,49.131 320.666,43.285 320.581,43.243 320.5,43.196 320.413,43.157 320.303,43.108 320.19,43.071 320.079,43.028 294.058,31.448 265.27,25 235,25 c -30.269,0 -59.057,6.448 -85.078,18.025 -0.112,0.044 -0.225,0.081 -0.336,0.13 -0.087,0.039 -0.168,0.086 -0.253,0.128 -13.034,5.847 -25.365,12.988 -36.835,21.254 -0.319,0.167 -0.632,0.351 -0.932,0.568 -0.309,0.225 -0.588,0.474 -0.853,0.734 -11.196,8.248 -21.553,17.572 -30.904,27.831 -0.305,0.246 -0.599,0.511 -0.869,0.812 -0.287,0.319 -0.534,0.66 -0.757,1.01 -9.25,10.387 -17.487,21.692 -24.553,33.765 -0.176,0.236 -0.344,0.481 -0.495,0.742 -0.135,0.234 -0.255,0.472 -0.362,0.714 C 35.11,161.458 25,197.071 25,235 c 0,37.929 10.11,73.542 27.773,104.286 0.107,0.241 0.227,0.48 0.362,0.714 0.143,0.247 0.305,0.476 0.47,0.701 7.071,12.088 15.317,23.408 24.578,33.806 0.223,0.351 0.47,0.691 0.757,1.01 0.269,0.299 0.562,0.561 0.864,0.806 9.352,10.261 19.711,19.586 30.909,27.836 0.264,0.26 0.543,0.51 0.853,0.734 0.303,0.22 0.619,0.406 0.941,0.575 11.467,8.263 23.795,15.402 36.826,21.248 0.085,0.042 0.166,0.089 0.253,0.128 0.105,0.047 0.212,0.08 0.318,0.122 C 175.93,438.549 204.724,445 235,445 c 30.276,0 59.07,-6.451 85.096,-18.033 0.106,-0.042 0.213,-0.075 0.318,-0.122 0.087,-0.039 0.168,-0.086 0.253,-0.128 13.031,-5.846 25.359,-12.985 36.827,-21.249 0.322,-0.168 0.638,-0.354 0.94,-0.574 0.309,-0.225 0.588,-0.474 0.853,-0.734 11.198,-8.25 21.558,-17.575 30.91,-27.837 0.302,-0.245 0.595,-0.507 0.864,-0.806 0.287,-0.319 0.534,-0.66 0.757,-1.01 9.261,-10.399 17.507,-21.719 24.578,-33.807 0.165,-0.225 0.327,-0.453 0.469,-0.7 z m -61.312,48.167 -4.357,-5.997 c -2.434,-3.351 -7.125,-4.093 -10.476,-1.66 -3.351,2.435 -4.094,7.125 -1.66,10.476 l 4.367,6.01 c -7.126,4.785 -14.586,9.106 -22.333,12.934 l -3.036,-6.819 c -1.685,-3.784 -6.118,-5.486 -9.902,-3.801 -3.784,1.685 -5.486,6.118 -3.801,9.902 l 3.046,6.842 c -7.941,3.187 -16.136,5.866 -24.55,7.997 l -1.561,-7.345 c -0.861,-4.052 -4.845,-6.64 -8.895,-5.777 -4.052,0.861 -6.638,4.844 -5.777,8.895 l 1.56,7.339 c -8.39,1.444 -16.962,2.346 -25.678,2.678 v -7.481 c 0,-4.142 -3.358,-7.5 -7.5,-7.5 -4.142,0 -7.5,3.358 -7.5,7.5 v 7.481 c -8.716,-0.332 -17.288,-1.234 -25.678,-2.678 l 1.56,-7.339 c 0.861,-4.051 -1.725,-8.034 -5.777,-8.895 -4.052,-0.863 -8.034,1.726 -8.895,5.777 l -1.561,7.345 c -8.413,-2.13 -16.609,-4.81 -24.55,-7.997 l 3.046,-6.842 c 1.685,-3.784 -0.017,-8.217 -3.801,-9.902 -3.785,-1.685 -8.218,0.017 -9.902,3.801 l -3.036,6.819 c -7.747,-3.828 -15.207,-8.149 -22.333,-12.934 l 4.367,-6.01 c 2.435,-3.351 1.691,-8.041 -1.66,-10.476 -3.352,-2.436 -8.042,-1.691 -10.476,1.66 l -4.357,5.997 c -6.763,-5.334 -13.158,-11.113 -19.157,-17.279 l 5.492,-4.945 c 3.078,-2.772 3.327,-7.514 0.555,-10.592 -2.772,-3.079 -7.514,-3.327 -10.592,-0.555 l -5.501,4.953 C 79.738,353.151 74.662,346.184 70.053,338.893 l 6.437,-3.717 c 3.587,-2.071 4.816,-6.658 2.745,-10.245 -2.071,-3.588 -6.657,-4.817 -10.245,-2.745 l -6.456,3.728 c -4.01,-7.576 -7.543,-15.441 -10.542,-23.564 l 7.135,-2.318 c 3.939,-1.28 6.095,-5.511 4.815,-9.451 -1.28,-3.94 -5.513,-6.093 -9.451,-4.815 l -7.146,2.322 c -2.327,-8.213 -4.116,-16.648 -5.352,-25.26 l 7.456,-0.784 c 4.119,-0.433 7.108,-4.124 6.675,-8.243 -0.433,-4.119 -4.124,-7.104 -8.243,-6.675 l -7.444,0.782 C 40.158,243.64 40,239.338 40,235 c 0,-4.338 0.158,-8.64 0.438,-12.908 l 7.444,0.782 c 0.267,0.028 0.531,0.042 0.793,0.042 3.79,0 7.044,-2.864 7.45,-6.716 0.433,-4.12 -2.556,-7.81 -6.675,-8.243 l -7.456,-0.784 c 1.236,-8.611 3.025,-17.047 5.352,-25.26 l 7.146,2.322 c 0.77,0.25 1.551,0.369 2.319,0.369 3.162,0 6.102,-2.015 7.131,-5.184 1.28,-3.939 -0.875,-8.171 -4.815,-9.451 l -7.135,-2.318 c 2.999,-8.123 6.532,-15.988 10.542,-23.564 l 6.456,3.728 c 1.181,0.682 2.471,1.006 3.743,1.006 2.592,0 5.113,-1.346 6.502,-3.751 2.071,-3.587 0.842,-8.174 -2.745,-10.245 l -6.437,-3.717 c 4.609,-7.291 9.685,-14.258 15.191,-20.856 l 5.501,4.953 c 1.434,1.291 3.228,1.926 5.016,1.926 2.052,0 4.095,-0.837 5.576,-2.481 2.771,-3.078 2.523,-7.82 -0.555,-10.592 L 95.29,99.113 c 5.999,-6.166 12.394,-11.945 19.157,-17.279 l 4.357,5.997 c 1.468,2.02 3.755,3.092 6.074,3.092 1.528,0 3.071,-0.466 4.402,-1.433 3.351,-2.435 4.094,-7.125 1.66,-10.476 l -4.367,-6.01 c 7.126,-4.785 14.586,-9.106 22.333,-12.934 l 3.036,6.819 c 1.244,2.793 3.984,4.452 6.856,4.452 1.019,0 2.055,-0.209 3.046,-0.65 3.784,-1.685 5.486,-6.118 3.801,-9.902 l -3.046,-6.842 c 7.941,-3.187 16.136,-5.866 24.55,-7.997 l 1.561,7.345 c 0.749,3.526 3.863,5.942 7.329,5.942 0.517,0 1.041,-0.054 1.566,-0.166 4.052,-0.861 6.638,-4.844 5.777,-8.895 l -1.56,-7.339 c 8.39,-1.444 16.962,-2.346 25.678,-2.678 v 7.481 c 0,4.142 3.358,7.5 7.5,7.5 4.142,0 7.5,-3.358 7.5,-7.5 v -7.481 c 8.716,0.332 17.288,1.234 25.678,2.678 l -1.56,7.339 c -0.861,4.051 1.725,8.034 5.777,8.895 0.525,0.112 1.05,0.166 1.566,0.166 3.466,0 6.58,-2.417 7.329,-5.942 l 1.561,-7.345 c 8.413,2.13 16.609,4.81 24.55,7.997 l -3.046,6.842 c -1.685,3.784 0.017,8.217 3.801,9.902 0.991,0.441 2.027,0.65 3.046,0.65 2.872,0 5.613,-1.659 6.856,-4.452 l 3.036,-6.819 c 7.747,3.828 15.207,8.149 22.333,12.934 l -4.367,6.01 c -2.435,3.351 -1.691,8.041 1.66,10.476 1.331,0.967 2.874,1.433 4.402,1.433 2.319,0 4.606,-1.072 6.074,-3.092 l 4.357,-5.997 c 6.763,5.334 13.158,11.113 19.157,17.279 l -5.492,4.945 c -3.078,2.772 -3.327,7.514 -0.555,10.592 1.481,1.645 3.524,2.481 5.576,2.481 1.788,0 3.583,-0.636 5.016,-1.926 l 5.501,-4.953 c 5.506,6.598 10.582,13.565 15.191,20.856 l -6.437,3.717 c -3.587,2.071 -4.816,6.658 -2.745,10.245 1.389,2.406 3.91,3.751 6.502,3.751 1.272,0 2.562,-0.324 3.743,-1.006 l 6.456,-3.728 c 4.01,7.576 7.543,15.441 10.542,23.564 l -7.135,2.318 c -3.939,1.28 -6.095,5.511 -4.815,9.451 1.03,3.169 3.97,5.184 7.131,5.184 0.768,0 1.549,-0.119 2.319,-0.369 l 7.146,-2.322 c 2.327,8.213 4.116,16.648 5.352,25.26 l -7.456,0.784 c -4.119,0.433 -7.108,4.124 -6.675,8.243 0.405,3.853 3.66,6.716 7.45,6.716 0.262,0 0.527,-0.014 0.793,-0.042 l 7.444,-0.782 c 0.28,4.268 0.438,8.57 0.438,12.908 0,4.338 -0.158,8.64 -0.438,12.908 l -7.444,-0.782 c -4.117,-0.431 -7.81,2.556 -8.243,6.675 -0.433,4.12 2.556,7.81 6.675,8.243 l 7.456,0.784 c -1.236,8.611 -3.025,17.047 -5.352,25.26 l -7.146,-2.322 c -3.941,-1.281 -8.171,0.876 -9.451,4.815 -1.28,3.939 0.875,8.171 4.815,9.451 l 7.135,2.318 c -2.999,8.123 -6.532,15.988 -10.542,23.564 l -6.456,-3.728 c -3.588,-2.072 -8.174,-0.842 -10.245,2.745 -2.071,3.587 -0.842,8.174 2.745,10.245 l 6.437,3.717 c -4.609,7.291 -9.685,14.258 -15.191,20.856 l -5.501,-4.953 c -3.078,-2.771 -7.82,-2.522 -10.592,0.555 -2.771,3.078 -2.523,7.82 0.555,10.592 l 5.492,4.945 c -5.999,6.166 -12.394,11.945 -19.156,17.279 z"
   id="path2"
   inkscape:connector-curvature="0" />
	<path
   d="m 209.565,303.628 c 0,4.142 3.358,7.5 7.5,7.5 h 38.832 c 4.142,0 7.5,-3.358 7.5,-7.5 0,-3.042 -1.814,-5.654 -4.416,-6.831 v -13.169 c 0,-4.142 -3.358,-7.5 -7.5,-7.5 -4.142,0 -7.5,3.358 -7.5,7.5 v 12.5 h -15 V 185.103 l 15,-6.974 v 75.499 c 0,4.142 3.358,7.5 7.5,7.5 4.142,0 7.5,-3.358 7.5,-7.5 v -87.257 c 0,-2.562 -1.307,-4.946 -3.467,-6.323 -2.16,-1.377 -4.872,-1.558 -7.195,-0.478 l -37.379,17.378 c -3.756,1.746 -5.385,6.207 -3.639,9.963 1.252,2.692 3.899,4.282 6.68,4.33 v 105.555 c -2.602,1.178 -4.416,3.791 -4.416,6.832 z"
   id="path4"
   inkscape:connector-curvature="0"
   style="fill:#003380;fill-opacity:1" />
	<path
   d="M 401.17,68.83 C 356.785,24.444 297.771,0 235,0 172.229,0 113.215,24.444 68.83,68.83 24.444,113.215 0,172.229 0,235 0,297.771 24.444,356.785 68.83,401.17 113.215,445.556 172.229,470 235,470 297.771,470 356.785,445.556 401.17,401.17 445.556,356.785 470,297.771 470,235 470,172.229 445.556,113.215 401.17,68.83 Z M 235,455 C 113.691,455 15,356.309 15,235 15,113.691 113.691,15 235,15 c 121.309,0 220,98.691 220,220 0,121.309 -98.691,220 -220,220 z"
   id="path6"
   inkscape:connector-curvature="0" />
	<path
   d="M 139.462,145.37 C 164.5,118.692 198.43,104 235,104 c 36.572,0 70.502,14.693 95.541,41.373 1.476,1.573 3.471,2.368 5.47,2.368 1.84,0 3.684,-0.673 5.131,-2.031 3.021,-2.834 3.171,-7.581 0.336,-10.601 C 313.979,105.806 275.168,89 235,89 c -40.167,0 -78.976,16.804 -106.476,46.104 -2.834,3.021 -2.684,7.767 0.336,10.602 3.021,2.834 7.767,2.684 10.602,-0.336 z"
   id="path8"
   inkscape:connector-curvature="0" />
	<path
   d="m 191.219,228.75 c -4.063,-0.809 -8.01,1.834 -8.816,5.896 l -9.432,47.523 c -2.097,10.563 -8.182,19.679 -17.134,25.666 -6.838,4.573 -14.722,6.894 -22.771,6.806 l 1.976,-9.955 21.547,-13.456 c 0.051,-0.032 0.097,-0.07 0.147,-0.103 0.125,-0.083 0.249,-0.167 0.369,-0.257 0.082,-0.062 0.162,-0.125 0.241,-0.189 0.101,-0.082 0.199,-0.167 0.296,-0.254 0.082,-0.074 0.164,-0.148 0.242,-0.225 0.087,-0.086 0.17,-0.176 0.253,-0.266 0.075,-0.082 0.152,-0.163 0.223,-0.248 0.084,-0.099 0.161,-0.204 0.24,-0.308 0.06,-0.08 0.123,-0.157 0.18,-0.239 0.103,-0.147 0.197,-0.302 0.289,-0.457 0.025,-0.042 0.054,-0.082 0.078,-0.125 0.116,-0.205 0.222,-0.416 0.319,-0.633 0.008,-0.018 0.014,-0.037 0.022,-0.055 0.085,-0.194 0.163,-0.392 0.231,-0.595 0.026,-0.076 0.045,-0.154 0.068,-0.231 0.044,-0.145 0.088,-0.289 0.123,-0.437 0.027,-0.112 0.045,-0.225 0.066,-0.338 0.019,-0.098 0.043,-0.195 0.058,-0.295 l 7.362,-49.407 c 0,-0.002 0.001,-0.005 0.001,-0.007 l 7.45,-50.003 c 0.464,-3.115 -1.067,-6.188 -3.833,-7.693 -2.765,-1.505 -6.178,-1.123 -8.541,0.958 l -3.21,2.826 3.717,-18.725 c 0.807,-4.063 -1.833,-8.01 -5.896,-8.816 -4.059,-0.809 -8.01,1.833 -8.816,5.896 l -3.716,18.724 -1.887,-3.837 c -1.39,-2.826 -4.403,-4.484 -7.528,-4.147 -3.131,0.335 -5.72,2.59 -6.48,5.646 l -24.239,97.382 c -0.009,0.032 -0.016,0.065 -0.024,0.098 l -0.014,0.056 c -0.008,0.031 -0.011,0.063 -0.018,0.094 -0.047,0.202 -0.089,0.405 -0.12,0.611 -0.01,0.068 -0.016,0.136 -0.024,0.204 -0.021,0.174 -0.039,0.348 -0.048,0.523 -0.004,0.083 -0.004,0.166 -0.005,0.249 -0.003,0.161 -0.004,0.322 0.004,0.484 0.004,0.084 0.012,0.168 0.019,0.252 0.013,0.161 0.028,0.321 0.052,0.481 0.011,0.077 0.026,0.153 0.04,0.229 0.029,0.166 0.062,0.331 0.103,0.496 0.016,0.066 0.036,0.13 0.054,0.195 0.047,0.17 0.098,0.339 0.158,0.507 0.021,0.059 0.045,0.117 0.068,0.176 0.064,0.167 0.132,0.333 0.208,0.496 0.029,0.061 0.061,0.121 0.092,0.181 0.078,0.154 0.157,0.307 0.246,0.458 0.042,0.071 0.089,0.139 0.134,0.208 0.071,0.111 0.135,0.224 0.213,0.332 l 14.777,20.667 -1.976,9.955 c -7.473,-2.993 -13.873,-8.15 -18.446,-14.987 -5.987,-8.952 -8.13,-19.7 -6.033,-30.264 l 9.432,-47.524 c 0.807,-4.063 -1.833,-8.01 -5.896,-8.816 -4.062,-0.809 -8.01,1.834 -8.816,5.896 l -9.432,47.524 c -2.877,14.494 0.063,29.24 8.278,41.523 6.807,10.178 16.567,17.643 27.958,21.543 l -2.383,12.004 c -0.807,4.063 1.833,8.01 5.896,8.816 0.493,0.098 0.984,0.145 1.468,0.145 3.506,0 6.64,-2.472 7.349,-6.042 l 2.382,-12.004 c 1.144,0.071 2.287,0.119 3.428,0.119 10.834,0 21.43,-3.194 30.639,-9.354 12.283,-8.214 20.631,-20.721 23.508,-35.214 l 9.432,-47.523 c 0.801,-4.063 -1.839,-8.01 -5.902,-8.816 z m -64.537,18.666 4.874,7.974 c 1.093,1.788 2.884,3.037 4.939,3.445 0.484,0.096 0.973,0.144 1.46,0.144 1.576,0 3.126,-0.497 4.42,-1.441 l 7.55,-5.508 -4.219,28.313 -15.387,9.609 -10.551,-14.758 z m 11.574,-46.498 2.609,5.304 c 0.016,0.033 0.038,0.063 0.054,0.096 0.088,0.171 0.184,0.338 0.284,0.502 0.041,0.068 0.079,0.138 0.123,0.204 0.146,0.222 0.301,0.438 0.469,0.643 0.019,0.022 0.04,0.042 0.059,0.065 0.153,0.183 0.315,0.358 0.485,0.526 0.056,0.055 0.115,0.105 0.172,0.158 0.141,0.13 0.285,0.257 0.436,0.376 0.067,0.053 0.135,0.103 0.203,0.153 0.151,0.111 0.306,0.217 0.466,0.317 0.072,0.045 0.143,0.089 0.216,0.132 0.164,0.095 0.333,0.183 0.506,0.266 0.075,0.036 0.149,0.074 0.225,0.108 0.18,0.079 0.365,0.148 0.553,0.214 0.073,0.026 0.144,0.056 0.219,0.079 0.245,0.077 0.496,0.143 0.753,0.195 0.016,0.003 0.031,0.009 0.046,0.012 0.014,0.003 0.029,0.003 0.043,0.006 0.257,0.05 0.513,0.084 0.768,0.106 0.074,0.007 0.147,0.007 0.221,0.011 0.145,0.008 0.291,0.021 0.435,0.021 0.059,0 0.116,-0.006 0.174,-0.008 0.064,-0.002 0.127,-0.005 0.19,-0.009 0.216,-0.01 0.43,-0.03 0.642,-0.059 0.051,-0.007 0.102,-0.012 0.152,-0.02 0.521,-0.082 1.027,-0.219 1.513,-0.405 0.066,-0.025 0.13,-0.053 0.195,-0.08 0.18,-0.075 0.357,-0.157 0.53,-0.246 0.065,-0.033 0.13,-0.064 0.194,-0.099 0.221,-0.121 0.438,-0.251 0.646,-0.394 0.041,-0.028 0.079,-0.06 0.12,-0.089 0.172,-0.123 0.339,-0.254 0.501,-0.392 0.029,-0.025 0.061,-0.045 0.09,-0.071 l 4.437,-3.905 -3.958,26.562 -12.919,9.425 -8.341,-13.644 z"
   id="path10"
   inkscape:connector-curvature="0"
   style="fill:#008000;fill-opacity:1" />
	<path
   d="m 354.604,326.618 c 11.391,-3.9 21.151,-11.365 27.958,-21.543 8.215,-12.283 11.155,-27.029 8.278,-41.523 l -9.432,-47.524 c -0.806,-4.063 -4.752,-6.704 -8.816,-5.896 -4.063,0.806 -6.703,4.753 -5.896,8.816 l 9.432,47.524 c 2.097,10.564 -0.046,21.312 -6.033,30.264 -4.573,6.837 -10.973,11.994 -18.446,14.987 l -1.976,-9.955 14.777,-20.667 c 0.077,-0.108 0.142,-0.221 0.213,-0.332 0.044,-0.07 0.092,-0.137 0.134,-0.208 0.089,-0.15 0.169,-0.303 0.246,-0.458 0.03,-0.06 0.063,-0.12 0.092,-0.181 0.077,-0.163 0.144,-0.329 0.208,-0.496 0.023,-0.059 0.047,-0.116 0.068,-0.176 0.06,-0.168 0.111,-0.337 0.158,-0.508 0.018,-0.065 0.037,-0.129 0.054,-0.194 0.041,-0.165 0.074,-0.331 0.103,-0.497 0.014,-0.076 0.028,-0.152 0.04,-0.228 0.023,-0.16 0.039,-0.32 0.052,-0.481 0.007,-0.084 0.015,-0.168 0.019,-0.252 0.007,-0.161 0.007,-0.322 0.004,-0.484 -0.002,-0.083 -0.001,-0.166 -0.005,-0.249 -0.009,-0.175 -0.027,-0.349 -0.048,-0.523 -0.008,-0.068 -0.014,-0.136 -0.024,-0.204 -0.031,-0.205 -0.072,-0.408 -0.12,-0.611 -0.007,-0.031 -0.011,-0.063 -0.018,-0.094 l -0.014,-0.056 c -0.008,-0.033 -0.016,-0.065 -0.024,-0.098 l -24.239,-97.382 c -0.76,-3.056 -3.349,-5.311 -6.48,-5.646 -3.127,-0.337 -6.137,1.321 -7.528,4.147 l -1.887,3.837 -3.716,-18.724 c -0.807,-4.063 -4.758,-6.702 -8.816,-5.896 -4.063,0.806 -6.703,4.753 -5.896,8.816 l 3.717,18.725 -3.21,-2.826 c -2.364,-2.081 -5.775,-2.463 -8.541,-0.958 -2.766,1.505 -4.297,4.578 -3.833,7.693 l 7.45,50.003 c 0,0.002 0.001,0.005 0.001,0.007 l 7.362,49.407 c 0.015,0.1 0.039,0.197 0.058,0.295 0.021,0.113 0.04,0.226 0.066,0.337 0.036,0.15 0.08,0.295 0.124,0.441 0.023,0.075 0.041,0.152 0.067,0.227 0.07,0.207 0.149,0.408 0.235,0.606 0.006,0.015 0.011,0.03 0.018,0.044 0.097,0.218 0.204,0.429 0.32,0.635 0.021,0.038 0.047,0.074 0.069,0.111 0.095,0.161 0.192,0.319 0.298,0.471 0.055,0.079 0.116,0.153 0.173,0.23 0.081,0.107 0.161,0.215 0.247,0.317 0.07,0.083 0.145,0.162 0.218,0.243 0.085,0.092 0.169,0.184 0.258,0.271 0.077,0.076 0.157,0.149 0.238,0.222 0.098,0.089 0.198,0.175 0.301,0.258 0.078,0.063 0.156,0.125 0.237,0.186 0.122,0.091 0.247,0.177 0.374,0.261 0.049,0.032 0.094,0.069 0.144,0.1 l 21.547,13.456 1.976,9.955 c -8.049,0.088 -15.934,-2.234 -22.771,-6.806 -8.952,-5.987 -15.037,-15.103 -17.134,-25.666 l -9.432,-47.523 c -0.807,-4.063 -4.754,-6.702 -8.816,-5.896 -4.063,0.806 -6.703,4.753 -5.896,8.816 l 9.432,47.523 c 2.876,14.494 11.225,27 23.508,35.214 9.21,6.16 19.804,9.354 30.639,9.354 1.14,0 2.283,-0.049 3.428,-0.12 l 2.382,12.004 c 0.708,3.57 3.842,6.042 7.349,6.042 0.484,0 0.975,-0.047 1.468,-0.145 4.063,-0.806 6.703,-4.753 5.896,-8.816 z m -30.311,-46.276 -4.219,-28.313 7.55,5.508 c 1.293,0.944 2.844,1.441 4.42,1.441 0.486,0 0.976,-0.047 1.46,-0.144 2.055,-0.408 3.846,-1.657 4.939,-3.445 l 4.874,-7.974 6.914,27.778 -10.551,14.758 z m 13.937,-53.364 -8.341,13.644 -12.919,-9.425 -3.958,-26.562 4.437,3.905 c 0.028,0.024 0.059,0.044 0.087,0.068 0.165,0.141 0.336,0.275 0.513,0.401 0.037,0.026 0.072,0.056 0.109,0.081 0.21,0.144 0.428,0.275 0.651,0.398 0.061,0.033 0.123,0.063 0.185,0.094 0.177,0.091 0.357,0.174 0.541,0.25 0.062,0.026 0.124,0.052 0.187,0.077 0.487,0.187 0.996,0.325 1.519,0.407 0.048,0.008 0.096,0.012 0.145,0.019 0.215,0.03 0.432,0.05 0.651,0.06 0.061,0.003 0.122,0.007 0.184,0.008 0.059,0.001 0.118,0.008 0.177,0.008 0.144,0 0.291,-0.013 0.436,-0.021 0.074,-0.004 0.147,-0.004 0.221,-0.011 0.255,-0.022 0.51,-0.057 0.767,-0.106 0.015,-0.003 0.029,-0.003 0.044,-0.006 0.016,-0.003 0.031,-0.009 0.046,-0.012 0.257,-0.053 0.508,-0.118 0.753,-0.195 0.074,-0.023 0.145,-0.053 0.219,-0.079 0.188,-0.066 0.374,-0.135 0.553,-0.214 0.076,-0.034 0.15,-0.072 0.225,-0.108 0.172,-0.083 0.342,-0.171 0.506,-0.266 0.073,-0.042 0.145,-0.087 0.216,-0.132 0.16,-0.1 0.315,-0.206 0.466,-0.317 0.068,-0.05 0.137,-0.1 0.203,-0.153 0.151,-0.119 0.295,-0.246 0.436,-0.376 0.057,-0.053 0.117,-0.103 0.172,-0.158 0.17,-0.168 0.332,-0.343 0.485,-0.526 0.019,-0.022 0.04,-0.042 0.059,-0.065 0.168,-0.206 0.324,-0.421 0.469,-0.643 0.043,-0.066 0.081,-0.136 0.123,-0.204 0.1,-0.164 0.196,-0.33 0.284,-0.502 0.017,-0.033 0.038,-0.063 0.054,-0.096 l 2.609,-5.304 z"
   id="path12"
   inkscape:connector-curvature="0"
   style="fill:#008000" />
	<path
   d="m 260.253,365 h -50.506 c -4.142,0 -7.5,3.358 -7.5,7.5 0,4.142 3.358,7.5 7.5,7.5 h 50.506 c 4.142,0 7.5,-3.358 7.5,-7.5 0,-4.142 -3.358,-7.5 -7.5,-7.5 z"
   id="path14"
   inkscape:connector-curvature="0" />
	<path
   d="m 272.253,330.564 h -74.506 c -4.142,0 -7.5,3.358 -7.5,7.5 0,4.142 3.358,7.5 7.5,7.5 h 74.506 c 4.142,0 7.5,-3.358 7.5,-7.5 0,-4.142 -3.358,-7.5 -7.5,-7.5 z"
   id="path16"
   inkscape:connector-curvature="0" />
</g>
<g
   id="g20">
</g>
<g
   id="g22">
</g>
<g
   id="g24">
</g>
<g
   id="g26">
</g>
<g
   id="g28">
</g>
<g
   id="g30">
</g>
<g
   id="g32">
</g>
<g
   id="g34">
</g>
<g
   id="g36">
</g>
<g
   id="g38">
</g>
<g
   id="g40">
</g>
<g
   id="g42">
</g>
<g
   id="g44">
</g>
<g
   id="g46">
</g>
<g
   id="g48">
</g>
</svg>